<svg viewBox="0 0 420 160" width="100%" height="100%" fill="none" xmlns="http://www.w3.org/2000/svg">
  <defs>
    <linearGradient id="pb-bg" x1="0" y1="0" x2="1" y2="1">
      <stop offset="0%" stop-color="#E8EDF4"/>
      <stop offset="100%" stop-color="#DCE3EC"/>
    </linearGradient>
  </defs>
  <rect width="420" height="160" rx="16" fill="url(#pb-bg)"/>
  <rect x="130" y="10" width="160" height="20" rx="10" fill="rgba(26,90,156,0.1)"/>
  <text x="210" y="24" text-anchor="middle" font-size="11" fill="#1a5a9c" stroke="none" font-family="sans-serif" font-weight="bold">作品集搭建 · SOP 工作流</text>
  <rect x="16" y="42" width="82" height="56" rx="10" fill="rgba(26,90,156,0.08)" stroke="rgba(26,90,156,0.15)" stroke-width="1"/>
  <circle cx="34" cy="56" r="10" fill="rgba(26,90,156,0.12)"/>
  <text x="34" y="60" text-anchor="middle" font-size="10" fill="#1a5a9c" stroke="none" font-family="sans-serif" font-weight="bold">1</text>
  <text x="52" y="56" font-size="8" fill="#1a5a9c" stroke="none" font-family="sans-serif" font-weight="bold">内容定稿</text>
  <text x="52" y="68" font-size="6" fill="rgba(0,0,0,0.3)" stroke="none" font-family="sans-serif">简历/项目</text>
  <circle cx="30" cy="84" r="2" fill="rgba(26,90,156,0.15)"/>
  <text x="36" y="86" font-size="6" fill="rgba(0,0,0,0.25)" stroke="none" font-family="sans-serif">整理 · 翻译</text>
  <path d="M100 70 L110 70" stroke="rgba(26,90,156,0.2)" stroke-width="1.5"/>
  <polygon points="110,66 116,70 110,74" fill="rgba(26,90,156,0.2)"/>
  <rect x="118" y="42" width="82" height="56" rx="10" fill="rgba(26,90,156,0.08)" stroke="rgba(26,90,156,0.15)" stroke-width="1"/>
  <circle cx="136" cy="56" r="10" fill="rgba(26,90,156,0.12)"/>
  <text x="136" y="60" text-anchor="middle" font-size="10" fill="#1a5a9c" stroke="none" font-family="sans-serif" font-weight="bold">2</text>
  <text x="154" y="56" font-size="8" fill="#1a5a9c" stroke="none" font-family="sans-serif" font-weight="bold">设计对齐</text>
  <text x="154" y="68" font-size="6" fill="rgba(0,0,0,0.3)" stroke="none" font-family="sans-serif">HTML搭建</text>
  <circle cx="132" cy="84" r="2" fill="rgba(26,90,156,0.15)"/>
  <text x="138" y="86" font-size="6" fill="rgba(0,0,0,0.25)" stroke="none" font-family="sans-serif">Neumorphism</text>
  <path d="M202 70 L212 70" stroke="rgba(26,90,156,0.2)" stroke-width="1.5"/>
  <polygon points="212,66 218,70 212,74" fill="rgba(26,90,156,0.2)"/>
  <rect x="220" y="42" width="82" height="56" rx="10" fill="rgba(212,144,91,0.08)" stroke="#D4905B" stroke-width="1"/>
  <circle cx="238" cy="56" r="10" fill="rgba(212,144,91,0.12)"/>
  <text x="238" y="60" text-anchor="middle" font-size="10" fill="#D4905B" stroke="none" font-family="sans-serif" font-weight="bold">3</text>
  <text x="256" y="56" font-size="8" fill="#D4905B" stroke="none" font-family="sans-serif" font-weight="bold">技术导出</text>
  <text x="256" y="68" font-size="6" fill="rgba(0,0,0,0.3)" stroke="none" font-family="sans-serif">PDF+PPTX</text>
  <circle cx="234" cy="84" r="2" fill="rgba(212,144,91,0.2)"/>
  <text x="240" y="86" font-size="6" fill="rgba(0,0,0,0.25)" stroke="none" font-family="sans-serif">playwright</text>
  <path d="M304 70 L314 70" stroke="rgba(26,90,156,0.2)" stroke-width="1.5"/>
  <polygon points="314,66 320,70 314,74" fill="rgba(26,90,156,0.2)"/>
  <rect x="322" y="42" width="82" height="56" rx="10" fill="rgba(26,90,156,0.08)" stroke="rgba(26,90,156,0.15)" stroke-width="1"/>
  <circle cx="340" cy="56" r="10" fill="rgba(26,90,156,0.12)"/>
  <text x="340" y="60" text-anchor="middle" font-size="10" fill="#1a5a9c" stroke="none" font-family="sans-serif" font-weight="bold">4</text>
  <text x="358" y="56" font-size="8" fill="#1a5a9c" stroke="none" font-family="sans-serif" font-weight="bold">上线同步</text>
  <text x="358" y="68" font-size="6" fill="rgba(0,0,0,0.3)" stroke="none" font-family="sans-serif">GitHub Pages</text>
  <circle cx="336" cy="84" r="2" fill="rgba(26,90,156,0.15)"/>
  <text x="342" y="86" font-size="6" fill="rgba(0,0,0,0.25)" stroke="none" font-family="sans-serif">GitHub/Gitee</text>
  <rect x="16" y="116" width="388" height="28" rx="8" fill="rgba(255,255,255,0.4)"/>
  <text x="36" y="134" font-size="8" fill="rgba(0,0,0,0.3)" stroke="none" font-family="sans-serif">📦 产出：</text>
  <rect x="74" y="122" width="58" height="16" rx="8" fill="rgba(26,90,156,0.08)"/>
  <text x="103" y="133" text-anchor="middle" font-size="7" fill="#1a5a9c" stroke="none" font-family="sans-serif">index.html</text>
  <rect x="138" y="122" width="48" height="16" rx="8" fill="rgba(26,90,156,0.08)"/>
  <text x="162" y="133" text-anchor="middle" font-size="7" fill="#1a5a9c" stroke="none" font-family="sans-serif">PDF简历</text>
  <rect x="192" y="122" width="56" height="16" rx="8" fill="rgba(212,144,91,0.08)"/>
  <text x="220" y="133" text-anchor="middle" font-size="7" fill="#D4905B" stroke="none" font-family="sans-serif">PPTX作品集</text>
  <rect x="254" y="122" width="48" height="16" rx="8" fill="rgba(26,90,156,0.08)"/>
  <text x="278" y="133" text-anchor="middle" font-size="7" fill="#1a5a9c" stroke="none" font-family="sans-serif">SOP文档</text>
  <rect x="308" y="122" width="40" height="16" rx="8" fill="rgba(26,90,156,0.06)"/>
  <text x="328" y="133" text-anchor="middle" font-size="7" fill="rgba(26,90,156,0.4)" stroke="none" font-family="sans-serif">GitHub</text>
  <rect x="354" y="122" width="40" height="16" rx="8" fill="rgba(26,90,156,0.06)"/>
  <text x="374" y="133" text-anchor="middle" font-size="7" fill="rgba(26,90,156,0.4)" stroke="none" font-family="sans-serif">Gitee</text>
</svg>
